<svg xmlns="http://www.w3.org/2000/svg" xmlns:xlink="http://www.w3.org/1999/xlink" width="300" zoomAndPan="magnify" viewBox="0 0 224.87999 225" height="300" preserveAspectRatio="xMidYMid meet" version="1.0"><defs><clipPath id="0ee161a888"><path d="M 0 0.0585938 L 224.761719 0.0585938 L 224.761719 224.9375 L 0 224.9375 Z M 0 0.0585938 " clip-rule="nonzero"/></clipPath><clipPath id="a6da98f348"><path d="M 6.824219 6.882812 L 218.210938 6.882812 L 218.210938 218.269531 L 6.824219 218.269531 Z M 6.824219 6.882812 " clip-rule="nonzero"/></clipPath></defs><g clip-path="url(#0ee161a888)"><path fill="#ffffff" d="M 0 0.0585938 L 224.878906 0.0585938 L 224.878906 224.941406 L 0 224.941406 Z M 0 0.0585938 " fill-opacity="1" fill-rule="nonzero"/><path fill="#000000" d="M 0 0.0585938 L 224.878906 0.0585938 L 224.878906 224.941406 L 0 224.941406 Z M 0 0.0585938 " fill-opacity="1" fill-rule="nonzero"/></g><g clip-path="url(#a6da98f348)"><path fill="#d3a971" d="M 112.503906 10.683594 C 168.773438 10.683594 214.386719 56.300781 214.386719 112.566406 C 214.386719 168.832031 168.773438 214.449219 112.503906 214.449219 C 56.238281 214.449219 10.625 168.832031 10.625 112.566406 C 10.625 56.300781 56.238281 10.683594 112.503906 10.683594 Z M 112.503906 6.878906 C 54.136719 6.878906 6.816406 54.195312 6.816406 112.566406 C 6.816406 170.9375 54.136719 218.253906 112.503906 218.253906 C 170.878906 218.253906 218.195312 170.9375 218.195312 112.566406 C 218.195312 54.195312 170.878906 6.878906 112.503906 6.878906 Z M 163.164062 65.546875 L 163.164062 109.746094 L 150.703125 101.703125 L 127.148438 116.328125 L 123.183594 118.792969 L 120.867188 120.230469 L 120.867188 52.453125 L 94.097656 69.042969 L 94.097656 98.203125 L 87.816406 93.949219 L 87.816406 65.546875 L 127.148438 41.167969 Z M 24.542969 112.566406 C 24.542969 63.984375 63.925781 24.601562 112.507812 24.601562 C 161.089844 24.601562 200.46875 63.984375 200.46875 112.566406 C 200.46875 135.015625 192.046875 155.488281 178.210938 171.03125 L 178.210938 124.1875 L 150.804688 105.636719 L 120.867188 124.1875 L 120.867188 200.125 C 118.113281 200.382812 115.328125 200.53125 112.507812 200.53125 C 109.683594 200.53125 106.898438 200.382812 104.144531 200.125 L 104.144531 109.261719 L 76.738281 90.710938 L 46.804688 109.261719 L 46.804688 171.03125 C 32.964844 155.488281 24.542969 135.015625 24.542969 112.566406 Z M 51.585938 111.921875 L 71.957031 99.296875 L 71.957031 190.621094 C 64.46875 186.722656 57.617188 181.78125 51.585938 175.984375 Z M 125.648438 126.851562 L 146.023438 114.226562 L 146.023438 193.902344 C 139.578125 196.5625 132.753906 198.484375 125.648438 199.550781 Z M 15.726562 112.566406 C 15.726562 166.015625 59.054688 209.347656 112.507812 209.347656 C 165.957031 209.347656 209.289062 166.015625 209.289062 112.566406 C 209.289062 59.117188 165.957031 15.785156 112.507812 15.785156 C 59.054688 15.785156 15.726562 59.117188 15.726562 112.566406 " fill-opacity="1" fill-rule="nonzero"/></g></svg>