<svg width="22" height="25" viewBox="0 0 22 25" fill="none" xmlns="http://www.w3.org/2000/svg">
<path d="M1 12.1904C1 10.2446 1 9.27167 1.39209 8.41646C1.78418 7.56125 2.52052 6.92808 3.99322 5.66174L5.42179 4.43335C8.08367 2.14445 9.41461 1 11 1C12.5854 1 13.9163 2.14445 16.5782 4.43334L18.0068 5.66174C19.4795 6.92808 20.2158 7.56125 20.6079 8.41646C21 9.27167 21 10.2446 21 12.1904V18.2675C21 20.9698 21 22.321 20.1632 23.1605C19.3263 24 17.9795 24 15.2857 24H6.71429C4.02055 24 2.67368 24 1.83684 23.1605C1 22.321 1 20.9698 1 18.2675V12.1904Z" stroke="black" stroke-width="2"/>
<path d="M14.5713 24V16.4012C14.5713 15.8489 14.1236 15.4012 13.5713 15.4012H8.42847C7.87618 15.4012 7.42847 15.8489 7.42847 16.4012V24" stroke="black" stroke-width="2" stroke-linecap="round" stroke-linejoin="round"/>
</svg>
