<svg width="22" height="20" viewBox="0 0 22 20" fill="none" xmlns="http://www.w3.org/2000/svg">
<path d="M1 5C1 3.11438 1 2.17157 1.58579 1.58579C2.17157 1 3.11438 1 5 1H6.81005C7.64347 1 8.06017 1 8.43338 1.15768C8.80659 1.31535 9.09707 1.61413 9.67803 2.21169L11.072 3.64546C11.6529 4.24301 11.9434 4.54179 12.3166 4.69947C12.6898 4.85714 13.1065 4.85714 13.94 4.85714H17C18.8856 4.85714 19.8284 4.85714 20.4142 5.44293C21 6.02872 21 6.97152 21 8.85714V15C21 16.8856 21 17.8284 20.4142 18.4142C19.8284 19 18.8856 19 17 19H5C3.11438 19 2.17157 19 1.58579 18.4142C1 17.8284 1 16.8856 1 15V5Z" stroke="black" stroke-width="2"/>
</svg>
