<svg width="300" height="300" viewBox="0 0 300 300" fill="none" xmlns="http://www.w3.org/2000/svg">
<rect width="300" height="300" fill="#1B1B1B"/>
<path d="M74.2188 202.285V216.494H72.0947C67.4561 216.494 63.2324 215.835 59.4238 214.517C55.6152 213.198 52.3438 211.294 49.6094 208.804C46.9238 206.313 44.8486 203.262 43.3838 199.648C41.9189 196.084 41.1865 192.007 41.1865 187.417C41.1865 185.708 41.2598 183.853 41.4062 181.851C41.6016 179.849 41.7725 177.871 41.9189 175.918C42.1143 173.916 42.2852 172.036 42.4316 170.278C42.627 168.472 42.7246 166.934 42.7246 165.664C42.7246 162.881 42.4561 160.586 41.9189 158.779C41.3818 156.973 40.5518 155.557 39.4287 154.531C38.3057 153.457 36.8408 152.725 35.0342 152.334C33.2275 151.895 31.0791 151.675 28.5889 151.675H28.0029V137.319H28.5889C31.0791 137.319 33.2275 137.124 35.0342 136.733C36.8408 136.294 38.3057 135.562 39.4287 134.536C40.5518 133.462 41.3818 132.021 41.9189 130.215C42.4561 128.408 42.7246 126.113 42.7246 123.33C42.7246 122.061 42.627 120.547 42.4316 118.789C42.2852 117.031 42.1143 115.176 41.9189 113.223C41.7725 111.221 41.6016 109.219 41.4062 107.217C41.2598 105.215 41.1865 103.335 41.1865 101.577C41.1865 96.9873 41.9189 92.9102 43.3838 89.3457C44.8486 85.7324 46.9238 82.6807 49.6094 80.1904C52.3438 77.7002 55.6152 75.7959 59.4238 74.4775C63.2324 73.1592 67.4561 72.5 72.0947 72.5H74.2188V86.7822H72.0947C66.9678 86.7822 63.0371 88.0518 60.3027 90.5908C57.5684 93.0811 56.2012 96.8408 56.2012 101.87C56.2012 103.384 56.2744 105.02 56.4209 106.777C56.5674 108.535 56.7383 110.342 56.9336 112.197C57.1289 114.004 57.2998 115.811 57.4463 117.617C57.5928 119.424 57.666 121.133 57.666 122.744C57.666 127.92 56.8848 132.339 55.3223 136.001C53.7598 139.614 51.1963 142.446 47.6318 144.497C51.1963 146.597 53.7598 149.478 55.3223 153.14C56.8848 156.753 57.666 161.123 57.666 166.25C57.666 167.861 57.5928 169.57 57.4463 171.377C57.2998 173.184 57.1289 175.015 56.9336 176.87C56.7383 178.677 56.5674 180.459 56.4209 182.217C56.2744 183.975 56.2012 185.61 56.2012 187.124C56.2012 192.153 57.5684 195.938 60.3027 198.477C63.0371 201.016 66.9678 202.285 72.0947 202.285H74.2188ZM95.3125 150.942C95.3125 148.94 95.6787 147.085 96.4111 145.376C97.1924 143.618 98.2178 142.08 99.4873 140.762C100.806 139.443 102.344 138.418 104.102 137.686C105.859 136.904 107.715 136.514 109.668 136.514H146.875V121.426H99.7803V106.997H146.875C148.877 106.997 150.757 107.388 152.515 108.169C154.272 108.901 155.786 109.927 157.056 111.245C158.374 112.515 159.399 114.028 160.132 115.786C160.913 117.544 161.304 119.424 161.304 121.426V185H146.875V171.816C146.729 173.623 146.24 175.332 145.41 176.943C144.58 178.555 143.506 179.971 142.188 181.191C140.918 182.363 139.453 183.291 137.793 183.975C136.133 184.658 134.375 185 132.52 185H109.668C107.715 185 105.859 184.634 104.102 183.901C102.344 183.12 100.806 182.095 99.4873 180.825C98.2178 179.507 97.1924 177.969 96.4111 176.211C95.6787 174.453 95.3125 172.573 95.3125 170.571V150.942ZM109.668 170.571H146.875V150.942H109.668V170.571ZM199.756 76.9678V185H185.4V76.9678H199.756ZM222.9 202.285C228.027 202.285 231.958 201.016 234.692 198.477C237.427 195.938 238.794 192.153 238.794 187.124C238.794 185.61 238.696 183.975 238.501 182.217C238.354 180.459 238.184 178.677 237.988 176.87C237.842 175.015 237.671 173.184 237.476 171.377C237.329 169.57 237.256 167.861 237.256 166.25C237.256 161.123 238.037 156.753 239.6 153.14C241.211 149.478 243.774 146.597 247.29 144.497C243.774 142.446 241.211 139.614 239.6 136.001C238.037 132.339 237.256 127.92 237.256 122.744C237.256 121.133 237.329 119.424 237.476 117.617C237.671 115.811 237.842 114.004 237.988 112.197C238.184 110.342 238.354 108.535 238.501 106.777C238.696 105.02 238.794 103.384 238.794 101.87C238.794 96.8408 237.427 93.0811 234.692 90.5908C231.958 88.0518 228.027 86.7822 222.9 86.7822H220.776V72.5H222.9C227.539 72.5 231.763 73.1592 235.571 74.4775C239.38 75.7959 242.627 77.7002 245.312 80.1904C247.998 82.6807 250.073 85.7324 251.538 89.3457C253.003 92.9102 253.735 96.9873 253.735 101.577C253.735 103.335 253.662 105.215 253.516 107.217C253.369 109.219 253.198 111.221 253.003 113.223C252.808 115.176 252.637 117.031 252.49 118.789C252.344 120.547 252.271 122.061 252.271 123.33C252.271 126.113 252.515 128.408 253.003 130.215C253.54 132.021 254.37 133.462 255.493 134.536C256.665 135.562 258.13 136.294 259.888 136.733C261.694 137.124 263.843 137.319 266.333 137.319H266.992V151.675H266.333C263.843 151.675 261.694 151.895 259.888 152.334C258.13 152.725 256.665 153.457 255.493 154.531C254.37 155.557 253.54 156.973 253.003 158.779C252.515 160.586 252.271 162.881 252.271 165.664C252.271 166.934 252.344 168.472 252.49 170.278C252.637 172.036 252.808 173.916 253.003 175.918C253.198 177.871 253.369 179.849 253.516 181.851C253.662 183.853 253.735 185.708 253.735 187.417C253.735 192.007 253.003 196.084 251.538 199.648C250.073 203.262 247.998 206.313 245.312 208.804C242.627 211.294 239.38 213.198 235.571 214.517C231.763 215.835 227.539 216.494 222.9 216.494H220.776V202.285H222.9Z" fill="#AF69D7"/>
<path d="M83.3008 200.015H211.768V207.485H83.3008V200.015Z" fill="#AF69D7"/>
</svg>
