<svg xmlns="http://www.w3.org/2000/svg" xmlns:xlink="http://www.w3.org/1999/xlink" width="300" zoomAndPan="magnify" viewBox="0 0 224.87999 225" height="300" preserveAspectRatio="xMidYMid meet" version="1.0"><defs><clipPath id="0a6f4d447a"><path d="M 4.878906 4.941406 L 220 4.941406 L 220 220.058594 L 4.878906 220.058594 Z M 4.878906 4.941406 " clip-rule="nonzero"/></clipPath><clipPath id="a00333ad2d"><path d="M 112.441406 4.941406 C 53.035156 4.941406 4.878906 53.097656 4.878906 112.5 C 4.878906 171.902344 53.035156 220.058594 112.441406 220.058594 C 171.84375 220.058594 220 171.902344 220 112.5 C 220 53.097656 171.84375 4.941406 112.441406 4.941406 Z M 112.441406 4.941406 " clip-rule="nonzero"/></clipPath><clipPath id="688ed97b7e"><path d="M 15.714844 14 L 194.121094 14 L 194.121094 152 L 15.714844 152 Z M 15.714844 14 " clip-rule="nonzero"/></clipPath></defs><g clip-path="url(#0a6f4d447a)"><g clip-path="url(#a00333ad2d)"><path fill="#ffffff" d="M 4.878906 4.941406 L 220 4.941406 L 220 220.058594 L 4.878906 220.058594 Z M 4.878906 4.941406 " fill-opacity="1" fill-rule="nonzero"/></g></g><g clip-path="url(#688ed97b7e)"><path fill="#000000" d="M 33.71875 112.574219 C 33.714844 121.628906 35.207031 130.492188 38.109375 138.886719 L 23.539062 151.136719 C 18.386719 139.027344 15.710938 125.957031 15.714844 112.566406 C 15.722656 99.289062 18.324219 86.410156 23.453125 74.277344 C 28.40625 62.5625 35.492188 52.050781 44.515625 43.023438 C 53.539062 33.996094 64.042969 26.882812 75.746094 21.933594 C 87.847656 16.808594 100.703125 14.1875 113.941406 14.1875 C 113.953125 14.1875 113.96875 14.1875 113.984375 14.1875 C 127.242188 14.1875 140.105469 16.828125 152.21875 21.964844 C 163.914062 26.921875 174.414062 34.035156 183.429688 43.070312 C 187.359375 47.007812 190.917969 51.234375 194.097656 55.714844 L 180.269531 67.347656 C 177.472656 63.25 174.28125 59.394531 170.699219 55.808594 C 155.554688 40.628906 135.414062 32.273438 113.980469 32.273438 C 113.972656 32.273438 113.960938 32.273438 113.945312 32.273438 C 92.527344 32.273438 72.394531 40.613281 57.242188 55.777344 C 42.078125 70.949219 33.726562 91.117188 33.71875 112.574219 Z M 33.71875 112.574219 " fill-opacity="1" fill-rule="nonzero"/></g><path fill="#fbb03b" d="M 168.40625 171.4375 L 182.335938 183.195312 C 173.550781 191.734375 163.398438 198.4375 152.140625 203.203125 C 140.035156 208.324219 127.179688 210.867188 113.941406 210.867188 C 113.929688 210.867188 113.914062 210.867188 113.898438 210.867188 C 102.503906 210.867188 91.335938 208.972656 80.699219 205.144531 C 70.421875 201.441406 60.882812 196.109375 52.347656 189.222656 L 43.824219 182.359375 L 98.578125 136.335938 L 61.085938 104.820312 C 61.734375 98.003906 63.238281 91.363281 65.542969 85.03125 L 112.578125 124.566406 L 168.0625 77.921875 C 170.851562 83.753906 172.917969 89.894531 174.21875 96.269531 L 72.753906 181.5 C 85.125 188.957031 99.160156 192.78125 113.910156 192.78125 C 113.921875 192.78125 113.933594 192.78125 113.945312 192.78125 C 134.945312 192.78125 154.09375 184.707031 168.40625 171.4375 Z M 168.40625 171.4375 " fill-opacity="1" fill-rule="nonzero"/></svg>